<svg width="4661" height="761" viewBox="0 0 4661 761" fill="none" xmlns="http://www.w3.org/2000/svg">
<path d="M876.602 600.682V204.962H974.61C1007.08 204.962 1031.22 212.674 1047.05 228.097C1063.29 243.114 1071.4 263.813 1071.4 290.194V515.45C1071.4 541.832 1063.49 562.734 1047.66 578.157C1031.83 593.174 1007.48 600.682 974.61 600.682H876.602ZM1028.79 290.194C1028.79 278.424 1024.12 267.466 1014.79 257.319C1005.86 246.767 992.467 241.49 974.61 241.49H919.214V564.154H974.61C992.873 564.154 1006.47 559.081 1015.4 548.934C1024.33 538.788 1028.79 527.626 1028.79 515.45V290.194ZM1183.95 600.682V204.962H1226.56V600.682H1183.95ZM1428.99 399.778H1539.78V524.582C1539.78 550.964 1531.67 571.866 1515.43 587.289C1499.2 602.306 1474.04 609.814 1439.95 609.814C1405.86 609.814 1380.49 602.306 1363.85 587.289C1347.21 571.866 1338.89 550.964 1338.89 524.582V281.062C1338.89 254.681 1347.01 233.982 1363.24 218.965C1379.48 203.542 1404.64 195.83 1438.73 195.83C1472.82 195.83 1498.18 203.542 1514.82 218.965C1531.46 233.982 1539.78 254.681 1539.78 281.062V314.546H1497.17V281.062C1497.17 265.639 1492.3 253.666 1482.56 245.143C1473.23 236.62 1458.62 232.358 1438.73 232.358C1419.25 232.358 1404.84 236.62 1395.51 245.143C1386.17 253.666 1381.51 265.639 1381.51 281.062V524.582C1381.51 539.599 1386.17 551.572 1395.51 560.501C1405.25 569.025 1420.06 573.286 1439.95 573.286C1459.43 573.286 1473.83 569.025 1483.17 560.501C1492.5 551.572 1497.17 539.599 1497.17 524.582V436.306H1428.99V399.778ZM1652.4 600.682V204.962H1695.01V600.682H1652.4ZM2103.29 600.682V186.294H1951.11V138.732H2304.83V186.294H2155.02V600.682H2103.29ZM2612.17 606.628C2465.72 606.628 2392.51 527.951 2392.51 370.598C2392.51 242.775 2441.66 166.674 2539.95 142.299C2561.16 137.146 2583.64 134.57 2607.42 134.57C2653.2 134.57 2698.37 143.587 2742.97 161.621L2727.2 205.616C2685.99 189.366 2649.73 181.24 2618.42 181.24C2587.11 181.24 2561.24 184.411 2540.84 190.753C2520.63 196.896 2503.28 207.795 2488.82 223.452C2461.28 253.179 2446.91 302.228 2445.72 370.598C2446.91 433.619 2460.18 480.389 2485.55 510.909C2512.9 543.212 2555.39 559.363 2613.06 559.363C2652.69 559.363 2694.61 550.148 2738.79 531.717L2754.56 576.604C2707.78 596.62 2660.32 606.628 2612.17 606.628ZM3021.19 134.272L3033.06 134.57C3081.03 136.353 3125.02 146.262 3165.04 164.296L3147.81 208.292C3110.15 191.248 3073.99 182.331 3039.31 181.538C3004.63 180.547 2976.59 184.808 2955.2 194.32C2934 203.635 2916.65 217.01 2903.17 234.45C2876.81 268.537 2863.64 317.29 2863.64 380.707C2866.02 439.762 2880.18 483.758 2906.16 512.692C2937.47 547.372 2986 563.426 3051.79 560.848C3080.34 559.659 3104.51 553.713 3124.33 543.013V396.164H3043.77V348.899H3175.45V576.604C3140.38 591.666 3103.13 601.277 3063.68 605.439C3051.4 606.628 3039.9 607.024 3029.2 606.628C2918.23 602.665 2849.87 557.875 2824.12 472.264C2815.78 444.915 2811.43 417.369 2811.03 389.623C2810.83 361.878 2812.23 337.701 2815.19 317.091C2818.35 296.282 2823.32 276.762 2830.06 258.529C2836.98 240.297 2845.91 223.551 2856.81 208.292C2867.7 193.032 2880.97 179.952 2896.64 169.053C2929.13 145.866 2970.64 134.272 3021.19 134.272ZM3658.19 441.785C3670.36 454.773 3678.48 467.355 3682.54 479.531C3687 491.707 3689.23 506.724 3689.23 524.582C3689.23 550.964 3681.12 571.866 3664.88 587.289C3648.65 602.306 3622.47 609.814 3586.35 609.814C3550.64 609.814 3524.46 602.306 3507.82 587.289C3491.59 571.866 3483.47 550.964 3483.47 524.582V472.834H3526.09V527.017C3526.09 540.817 3530.96 551.978 3540.7 560.501C3550.84 569.025 3566.06 573.286 3586.35 573.286C3606.64 573.286 3621.66 569.025 3631.4 560.501C3641.55 551.978 3646.62 540.817 3646.62 527.017C3646.62 514.436 3645.2 503.883 3642.36 495.36C3639.92 486.837 3633.63 477.705 3623.49 467.964L3516.35 363.25C3503.77 350.263 3495.04 337.681 3490.17 325.505C3485.71 313.329 3483.47 298.515 3483.47 281.062C3483.47 254.681 3491.79 233.982 3508.43 218.965C3525.07 203.542 3550.64 195.83 3585.14 195.83C3619.23 195.83 3643.98 203.542 3659.4 218.965C3675.23 233.982 3683.14 254.681 3683.14 281.062V332.81H3640.53V278.627C3640.53 264.422 3635.86 253.26 3626.53 245.143C3617.2 236.62 3602.79 232.358 3583.31 232.358C3563.83 232.358 3549.42 236.62 3540.09 245.143C3530.75 253.26 3526.09 264.422 3526.09 278.627C3526.09 291.209 3527.3 301.761 3529.74 310.285C3532.58 318.808 3539.07 327.737 3549.22 337.072L3658.19 441.785ZM3947.99 491.098H3990.6V524.582C3990.6 550.964 3982.49 571.866 3966.25 587.289C3950.02 602.306 3924.86 609.814 3890.77 609.814C3856.68 609.814 3831.31 602.306 3814.68 587.289C3798.04 571.866 3789.72 550.964 3789.72 524.582V281.062C3789.72 254.681 3797.83 233.982 3814.07 218.965C3830.3 203.542 3855.46 195.83 3889.55 195.83C3923.64 195.83 3949.01 203.542 3965.65 218.965C3982.28 233.982 3990.6 254.681 3990.6 281.062V338.898H3947.99V281.062C3947.99 265.639 3943.12 253.666 3933.38 245.143C3924.05 236.62 3909.44 232.358 3889.55 232.358C3870.07 232.358 3855.66 236.62 3846.33 245.143C3837 253.666 3832.33 265.639 3832.33 281.062V524.582C3832.33 539.599 3837 551.572 3846.33 560.501C3856.07 569.025 3870.88 573.286 3890.77 573.286C3910.25 573.286 3924.66 569.025 3933.99 560.501C3943.32 551.572 3947.99 539.599 3947.99 524.582V491.098ZM4267.73 600.682L4251.9 561.719C4243.78 575.924 4232.83 587.492 4219.03 596.421C4205.23 605.35 4189.81 609.814 4172.76 609.814C4151.25 609.814 4134.01 606.161 4121.02 598.856C4108.03 591.144 4098.7 580.795 4093.02 567.807C4087.74 554.819 4085.1 540.411 4085.1 524.582V463.702C4085.1 447.468 4087.74 433.059 4093.02 420.477C4098.7 407.49 4108.03 397.343 4121.02 390.037C4134.01 382.326 4151.25 378.47 4172.76 378.47H4243.38V278.627C4243.38 264.422 4238.71 253.26 4229.38 245.143C4220.45 236.62 4206.65 232.358 4187.98 232.358C4169.72 232.358 4156.12 236.62 4147.19 245.143C4138.27 253.26 4133.8 264.422 4133.8 278.627V314.546H4091.19V281.062C4091.19 254.275 4099.1 233.373 4114.93 218.356C4130.76 203.339 4155.11 195.83 4187.98 195.83C4220.85 195.83 4245.41 203.339 4261.64 218.356C4277.87 233.373 4285.99 254.275 4285.99 281.062V600.682H4267.73ZM4243.38 414.998H4172.76C4154.5 414.998 4142.32 419.666 4136.24 429.001C4130.56 438.336 4127.71 449.903 4127.71 463.702V524.582C4127.71 538.382 4130.56 549.949 4136.24 559.284C4142.32 568.619 4154.5 573.286 4172.76 573.286C4184.94 573.286 4196.1 570.039 4206.24 563.545C4216.8 557.052 4225.52 549.34 4232.42 540.411C4239.32 531.076 4242.97 522.35 4243.38 514.233V414.998ZM4401.65 600.682V204.962H4419.91L4435.13 244.534C4443.66 230.329 4454.82 218.762 4468.61 209.833C4482.82 200.498 4498.65 195.83 4516.1 195.83C4538.42 195.83 4556.07 199.686 4569.06 207.397C4582.05 214.703 4591.38 224.85 4597.06 237.837C4602.74 250.419 4605.58 264.828 4605.58 281.062V600.682H4562.97V281.062C4562.97 267.263 4559.93 255.696 4553.84 246.361C4548.16 237.026 4535.78 232.358 4516.71 232.358C4504.13 232.358 4492.15 235.808 4480.79 242.708C4469.83 249.202 4460.9 257.319 4454.01 267.06C4447.51 276.395 4444.26 285.121 4444.26 293.238V600.682H4401.65Z" fill="white"/>
<path d="M1941.12 413.942C1939.01 445.9 1911.39 470.093 1879.44 467.983C1847.48 465.872 1823.29 438.255 1825.4 406.297C1827.51 374.341 1855.13 350.148 1887.08 352.258C1919.04 354.369 1943.23 381.986 1941.12 413.942Z" fill="white"/>
<path d="M3375.75 413.942C3373.64 445.9 3346.02 470.093 3314.06 467.983C3282.1 465.872 3257.91 438.255 3260.02 406.297C3262.13 374.341 3289.75 350.148 3321.71 352.258C3353.67 354.369 3377.86 381.986 3375.75 413.942Z" fill="white"/>
<path d="M536.927 80.7193C524.699 81.6487 517.414 96.4257 524.563 106.646C528.631 112.464 535.622 116.419 540.969 120.978C551.236 129.735 561.173 138.755 570.601 148.418C594.49 172.91 613.226 202.108 628.379 232.635C631.76 239.439 634.704 246.489 637.574 253.52C640.707 261.224 643.18 270.857 652.8 272.245C654.752 272.525 656.909 272.483 658.864 272.269C667.116 271.368 673.461 263.819 672.7 255.542C672.262 250.838 670.45 246.513 668.969 242.067C665.822 232.637 661.794 223.334 657.348 214.444C637.097 173.941 610.279 137.08 576.674 106.596C568.994 99.6306 560.863 93.127 552.421 87.1078C547.72 83.7553 543.024 80.2558 536.927 80.7193Z" fill="white"/>
<path d="M536.927 80.7193C524.699 81.6487 517.414 96.4257 524.563 106.646C528.631 112.464 535.622 116.419 540.969 120.978C551.236 129.735 561.173 138.755 570.601 148.418C594.49 172.91 613.226 202.108 628.379 232.635C631.76 239.439 634.704 246.489 637.574 253.52C640.707 261.224 643.18 270.857 652.8 272.245C654.752 272.525 656.909 272.483 658.864 272.269C667.116 271.368 673.461 263.819 672.7 255.542C672.262 250.838 670.45 246.513 668.969 242.067C665.822 232.637 661.794 223.334 657.348 214.444C637.097 173.941 610.279 137.08 576.674 106.596C568.994 99.6306 560.863 93.127 552.421 87.1078C547.72 83.7553 543.024 80.2558 536.927 80.7193Z" fill="white" fill-opacity="0.16"/>
<path d="M324.21 49.1215C310.534 50.9172 296.786 51.5465 283.116 53.845C265.015 56.8875 247.167 62.0187 229.895 68.1664C174.148 88.0086 122.475 123.086 83.9936 168.087C58.6866 197.682 39.2072 231.2 24.4286 267.127C10.3356 301.386 3.30316 338.138 0.78191 374.925C-0.408086 392.286 -0.392768 410.197 1.90362 427.477C3.40141 438.746 4.42495 450.09 7.15749 461.164C9.6685 471.339 14.8607 478.655 26.4421 477.208C34.2002 476.24 39.0635 469.977 39.8007 462.511C40.1745 458.725 38.9854 455.393 38.3091 451.732C37.4022 446.821 36.8444 441.837 36.0395 436.909C35.4526 433.317 35.3605 429.709 34.8027 426.13C32.1719 409.246 32.6266 391.26 33.7922 374.252C36.7535 331.041 47.6991 287.924 68.4187 249.61C98.0474 194.821 141.896 148.857 196.884 119.112C213.292 110.237 230.633 103.373 248.084 96.92C271.85 88.133 298.355 83.6335 323.537 81.909C328.857 81.5445 334.385 81.3152 339.705 81.1847C346.442 81.0198 352.743 81.4979 357.535 75.7222C364.26 67.6191 361.878 53.9413 351.831 49.8346C348.443 48.4498 344.632 48.8355 341.053 48.8355C335.495 48.8355 329.728 48.3972 324.21 49.1215Z" fill="white"/>
<path d="M324.21 49.1215C310.534 50.9172 296.786 51.5465 283.116 53.845C265.015 56.8875 247.167 62.0187 229.895 68.1664C174.148 88.0086 122.475 123.086 83.9936 168.087C58.6866 197.682 39.2072 231.2 24.4286 267.127C10.3356 301.386 3.30316 338.138 0.78191 374.925C-0.408086 392.286 -0.392768 410.197 1.90362 427.477C3.40141 438.746 4.42495 450.09 7.15749 461.164C9.6685 471.339 14.8607 478.655 26.4421 477.208C34.2002 476.24 39.0635 469.977 39.8007 462.511C40.1745 458.725 38.9854 455.393 38.3091 451.732C37.4022 446.821 36.8444 441.837 36.0395 436.909C35.4526 433.317 35.3605 429.709 34.8027 426.13C32.1719 409.246 32.6266 391.26 33.7922 374.252C36.7535 331.041 47.6991 287.924 68.4187 249.61C98.0474 194.821 141.896 148.857 196.884 119.112C213.292 110.237 230.633 103.373 248.084 96.92C271.85 88.133 298.355 83.6335 323.537 81.909C328.857 81.5445 334.385 81.3152 339.705 81.1847C346.442 81.0198 352.743 81.4979 357.535 75.7222C364.26 67.6191 361.878 53.9413 351.831 49.8346C348.443 48.4498 344.632 48.8355 341.053 48.8355C335.495 48.8355 329.728 48.3972 324.21 49.1215Z" fill="white" fill-opacity="0.16"/>
<path d="M331.452 119.058C309.614 121.926 286.291 122.13 265.431 130.306C253.672 134.914 253.93 150.043 261.651 158.318C269.147 166.35 283.058 159.363 291.705 157.263C315.988 151.365 341.598 149.528 366.484 151.9C437.598 158.677 500.129 201.633 534.022 264.301C550.911 295.526 561.367 333.044 559.805 368.73C558.143 406.654 546.603 443.613 526.532 475.855C518.326 489.035 508.692 501.785 497.842 512.91C493.885 516.965 489.926 521.121 485.726 524.922C482.512 527.83 478.731 530.49 475.978 533.855C468.111 543.476 476.633 559.873 488.421 560.683C495.823 561.192 500.153 556.715 505.263 552.101C513.933 544.265 521.977 535.917 529.602 527.059C565.111 485.798 586.235 435.587 591.378 381.531C599.252 298.801 557.274 212.709 490.442 164.415C462.879 144.5 431.324 131.074 398.147 124.02C386.067 121.452 374.05 120.227 361.768 119.386C351.916 118.711 341.298 117.765 331.452 119.058Z" fill="white"/>
<path d="M331.452 119.058C309.614 121.926 286.291 122.13 265.431 130.306C253.672 134.914 253.93 150.043 261.651 158.318C269.147 166.35 283.058 159.363 291.705 157.263C315.988 151.365 341.598 149.528 366.484 151.9C437.598 158.677 500.129 201.633 534.022 264.301C550.911 295.526 561.367 333.044 559.805 368.73C558.143 406.654 546.603 443.613 526.532 475.855C518.326 489.035 508.692 501.785 497.842 512.91C493.885 516.965 489.926 521.121 485.726 524.922C482.512 527.83 478.731 530.49 475.978 533.855C468.111 543.476 476.633 559.873 488.421 560.683C495.823 561.192 500.153 556.715 505.263 552.101C513.933 544.265 521.977 535.917 529.602 527.059C565.111 485.798 586.235 435.587 591.378 381.531C599.252 298.801 557.274 212.709 490.442 164.415C462.879 144.5 431.324 131.074 398.147 124.02C386.067 121.452 374.05 120.227 361.768 119.386C351.916 118.711 341.298 117.765 331.452 119.058Z" fill="white" fill-opacity="0.16"/>
<path d="M162.429 259.554C155.197 260.191 148.863 266.35 144.585 273.873C140.587 280.903 140.579 283.583 136.912 291.942C133.415 299.918 131.53 306.564 128.508 315.554C127.242 319.316 125.562 325.372 123.983 331.752C120.203 347.02 120.14 366.606 135.702 368.891C142.734 369.924 151.073 365.498 153.056 358.673C154.05 355.251 155.132 350.653 156.264 344.476C160.751 320.004 177.715 285.294 180.36 277.252C180.688 276.256 180.89 274.47 180.924 273.423C181.117 267.473 176.807 261.857 171.148 260.013C168.528 259.158 166.369 259.209 162.429 259.554Z" fill="white"/>
<path d="M162.429 259.554C155.197 260.191 148.863 266.35 144.585 273.873C140.587 280.903 140.579 283.583 136.912 291.942C133.415 299.918 131.53 306.564 128.508 315.554C127.242 319.316 125.562 325.372 123.983 331.752C120.203 347.02 120.14 366.606 135.702 368.891C142.734 369.924 151.073 365.498 153.056 358.673C154.05 355.251 155.132 350.653 156.264 344.476C160.751 320.004 177.715 285.294 180.36 277.252C180.688 276.256 180.89 274.47 180.924 273.423C181.117 267.473 176.807 261.857 171.148 260.013C168.528 259.158 166.369 259.209 162.429 259.554Z" fill="white" fill-opacity="0.16"/>
<path d="M336.166 276.04C321.223 278.075 307.656 282.254 295.071 290.81C285.658 297.208 277.608 305.382 271.271 314.831C248.356 348.993 252.784 397.234 281.624 426.661C301.335 446.774 330.036 455.815 357.724 452.085C370.1 450.417 382.165 446.037 392.756 439.43C401.093 434.225 408.358 427.518 414.571 419.934C447.618 379.613 436.344 316.807 392.756 289.198C384.379 283.892 374.879 279.768 365.135 277.779C355.843 275.88 345.62 274.753 336.166 276.04Z" fill="white"/>
<path d="M336.166 276.04C321.223 278.075 307.656 282.254 295.071 290.81C285.658 297.208 277.608 305.382 271.271 314.831C248.356 348.993 252.784 397.234 281.624 426.661C301.335 446.774 330.036 455.815 357.724 452.085C370.1 450.417 382.165 446.037 392.756 439.43C401.093 434.225 408.358 427.518 414.571 419.934C447.618 379.613 436.344 316.807 392.756 289.198C384.379 283.892 374.879 279.768 365.135 277.779C355.843 275.88 345.62 274.753 336.166 276.04Z" fill="white" fill-opacity="0.16"/>
<path d="M336.166 276.04C321.223 278.075 307.656 282.254 295.071 290.81C285.658 297.208 277.608 305.382 271.271 314.831C248.356 348.993 252.784 397.234 281.624 426.661C301.335 446.774 330.036 455.815 357.724 452.085C370.1 450.417 382.165 446.037 392.756 439.43C401.093 434.225 408.358 427.518 414.571 419.934C447.618 379.613 436.344 316.807 392.756 289.198C384.379 283.892 374.879 279.768 365.135 277.779C355.843 275.88 345.62 274.753 336.166 276.04Z" fill="white"/>
<path d="M336.166 276.04C321.223 278.075 307.656 282.254 295.071 290.81C285.658 297.208 277.608 305.382 271.271 314.831C248.356 348.993 252.784 397.234 281.624 426.661C301.335 446.774 330.036 455.815 357.724 452.085C370.1 450.417 382.165 446.037 392.756 439.43C401.093 434.225 408.358 427.518 414.571 419.934C447.618 379.613 436.344 316.807 392.756 289.198C384.379 283.892 374.879 279.768 365.135 277.779C355.843 275.88 345.62 274.753 336.166 276.04Z" fill="white" fill-opacity="0.16"/>
<path d="M336.166 276.04C321.223 278.075 307.656 282.254 295.071 290.81C285.658 297.208 277.608 305.382 271.271 314.831C248.356 348.993 252.784 397.234 281.624 426.661C301.335 446.774 330.036 455.815 357.724 452.085C370.1 450.417 382.165 446.037 392.756 439.43C401.093 434.225 408.358 427.518 414.571 419.934C447.618 379.613 436.344 316.807 392.756 289.198C384.379 283.892 374.879 279.768 365.135 277.779C355.843 275.88 345.62 274.753 336.166 276.04Z" fill="white"/>
<path d="M336.166 276.04C321.223 278.075 307.656 282.254 295.071 290.81C285.658 297.208 277.608 305.382 271.271 314.831C248.356 348.993 252.784 397.234 281.624 426.661C301.335 446.774 330.036 455.815 357.724 452.085C370.1 450.417 382.165 446.037 392.756 439.43C401.093 434.225 408.358 427.518 414.571 419.934C447.618 379.613 436.344 316.807 392.756 289.198C384.379 283.892 374.879 279.768 365.135 277.779C355.843 275.88 345.62 274.753 336.166 276.04Z" fill="white" fill-opacity="0.16"/>
<path d="M670.312 348.16C657.706 350.482 659.257 363.693 658.832 373.446C658.589 379.016 657.929 384.739 657.396 390.289C653.26 433.569 640.008 475.911 619.704 514.257C582.321 584.862 512.213 641.973 435.196 663.626C414.056 669.568 392.433 674.428 370.522 676.515C362.45 677.284 354.34 677.767 346.27 678.536C342.99 678.848 339.243 678.006 336.164 679.419C324.283 684.865 327.672 706.543 340.206 708.746C350.164 710.498 361.856 709.043 371.869 708.355C393.519 706.873 414.896 703.632 435.869 697.798C493.63 681.744 547.831 651.335 590.141 608.581C619.619 578.794 643.216 543.528 660.671 505.499C677.466 468.91 688.85 426.645 689.842 386.247C690.003 379.518 689.848 372.766 689.848 366.035C689.848 361.803 690.049 357.528 687.389 353.938C684.917 350.6 680.948 349.315 677.048 348.521C674.792 348.061 672.609 347.738 670.312 348.16Z" fill="white"/>
<path d="M670.312 348.16C657.706 350.482 659.257 363.693 658.832 373.446C658.589 379.016 657.929 384.739 657.396 390.289C653.26 433.569 640.008 475.911 619.704 514.257C582.321 584.862 512.213 641.973 435.196 663.626C414.056 669.568 392.433 674.428 370.522 676.515C362.45 677.284 354.34 677.767 346.27 678.536C342.99 678.848 339.243 678.006 336.164 679.419C324.283 684.865 327.672 706.543 340.206 708.746C350.164 710.498 361.856 709.043 371.869 708.355C393.519 706.873 414.896 703.632 435.869 697.798C493.63 681.744 547.831 651.335 590.141 608.581C619.619 578.794 643.216 543.528 660.671 505.499C677.466 468.91 688.85 426.645 689.842 386.247C690.003 379.518 689.848 372.766 689.848 366.035C689.848 361.803 690.049 357.528 687.389 353.938C684.917 350.6 680.948 349.315 677.048 348.521C674.792 348.061 672.609 347.738 670.312 348.16Z" fill="white" fill-opacity="0.16"/>
<path d="M149.557 477.579C140.356 479.994 135.883 491.131 139.73 499.437C141.844 504.001 145.3 508.161 148.209 512.238C156.216 523.462 165.402 533.519 175.157 543.23C209.32 577.231 257.651 600.483 305.178 607.519C316.215 609.153 327.039 609.93 338.189 609.93C342.968 609.93 348.566 610.744 353.01 608.635C363.332 603.743 364.205 585.564 353.657 580.318C347.657 577.335 338.069 578.688 331.452 578.203C319.88 577.355 308.409 575.101 297.094 572.588C263.11 565.039 232.031 547.83 205.473 525.658C193.688 515.82 183.042 504.1 173.582 492.026C167.092 483.742 161.749 474.381 149.557 477.579Z" fill="white"/>
<path d="M149.557 477.579C140.356 479.994 135.883 491.131 139.73 499.437C141.844 504.001 145.3 508.161 148.209 512.238C156.216 523.462 165.402 533.519 175.157 543.23C209.32 577.231 257.651 600.483 305.178 607.519C316.215 609.153 327.039 609.93 338.189 609.93C342.968 609.93 348.566 610.744 353.01 608.635C363.332 603.743 364.205 585.564 353.657 580.318C347.657 577.335 338.069 578.688 331.452 578.203C319.88 577.355 308.409 575.101 297.094 572.588C263.11 565.039 232.031 547.83 205.473 525.658C193.688 515.82 183.042 504.1 173.582 492.026C167.092 483.742 161.749 474.381 149.557 477.579Z" fill="white" fill-opacity="0.16"/>
<path d="M78.1444 546.327C69.2788 548.486 64.4712 557.452 67.1282 566.136C68.2715 569.872 71.2209 573.084 73.4118 576.242C78.843 584.071 85.1426 591.249 91.3344 598.475C119.444 631.285 157.013 656.319 195.365 675.448C204.212 679.859 213.597 683.644 222.986 686.735C227.872 688.344 233.497 689.793 238.481 687.758C248.761 683.555 250.938 668.392 242.513 661.362C238.489 658.004 233.101 656.875 228.375 654.878C219.043 650.931 209.675 646.757 200.755 641.947C170.217 625.488 140.432 605.332 117.504 578.937C111.653 572.201 105.651 565.634 99.9878 558.724C94.2481 551.721 88.4747 543.811 78.1444 546.327Z" fill="white"/>
<path d="M78.1444 546.327C69.2788 548.486 64.4712 557.452 67.1282 566.136C68.2715 569.872 71.2209 573.084 73.4118 576.242C78.843 584.071 85.1426 591.249 91.3344 598.475C119.444 631.285 157.013 656.319 195.365 675.448C204.212 679.859 213.597 683.644 222.986 686.735C227.872 688.344 233.497 689.793 238.481 687.758C248.761 683.555 250.938 668.392 242.513 661.362C238.489 658.004 233.101 656.875 228.375 654.878C219.043 650.931 209.675 646.757 200.755 641.947C170.217 625.488 140.432 605.332 117.504 578.937C111.653 572.201 105.651 565.634 99.9878 558.724C94.2481 551.721 88.4747 543.811 78.1444 546.327Z" fill="white" fill-opacity="0.16"/>
<path d="M536.927 80.7193C524.699 81.6487 517.414 96.4257 524.563 106.646C528.631 112.464 535.622 116.419 540.969 120.978C551.236 129.735 561.173 138.755 570.601 148.418C594.49 172.91 613.226 202.108 628.379 232.635C631.76 239.439 634.704 246.489 637.574 253.52C640.707 261.224 643.18 270.857 652.8 272.245C654.752 272.525 656.909 272.483 658.864 272.269C667.116 271.368 673.461 263.819 672.7 255.542C672.262 250.838 670.45 246.513 668.969 242.067C665.822 232.637 661.794 223.334 657.348 214.444C637.097 173.941 610.279 137.08 576.674 106.596C568.994 99.6306 560.863 93.127 552.421 87.1078C547.72 83.7553 543.024 80.2558 536.927 80.7193Z" fill="white"/>
<path d="M536.927 80.7193C524.699 81.6487 517.414 96.4257 524.563 106.646C528.631 112.464 535.622 116.419 540.969 120.978C551.236 129.735 561.173 138.755 570.601 148.418C594.49 172.91 613.226 202.108 628.379 232.635C631.76 239.439 634.704 246.489 637.574 253.52C640.707 261.224 643.18 270.857 652.8 272.245C654.752 272.525 656.909 272.483 658.864 272.269C667.116 271.368 673.461 263.819 672.7 255.542C672.262 250.838 670.45 246.513 668.969 242.067C665.822 232.637 661.794 223.334 657.348 214.444C637.097 173.941 610.279 137.08 576.674 106.596C568.994 99.6306 560.863 93.127 552.421 87.1078C547.72 83.7553 543.024 80.2558 536.927 80.7193Z" fill="white" fill-opacity="0.16"/>
<path d="M324.21 49.1215C310.534 50.9172 296.786 51.5465 283.116 53.845C265.015 56.8875 247.167 62.0187 229.895 68.1664C174.148 88.0086 122.475 123.086 83.9936 168.087C58.6866 197.682 39.2072 231.2 24.4286 267.127C10.3356 301.386 3.30316 338.138 0.78191 374.925C-0.408086 392.286 -0.392768 410.197 1.90362 427.477C3.40141 438.746 4.42495 450.09 7.15749 461.164C9.6685 471.339 14.8607 478.655 26.4421 477.208C34.2002 476.24 39.0635 469.977 39.8007 462.511C40.1745 458.725 38.9854 455.393 38.3091 451.732C37.4022 446.821 36.8444 441.837 36.0395 436.909C35.4526 433.317 35.3605 429.709 34.8027 426.13C32.1719 409.246 32.6266 391.26 33.7922 374.252C36.7535 331.041 47.6991 287.924 68.4187 249.61C98.0474 194.821 141.896 148.857 196.884 119.112C213.292 110.237 230.633 103.373 248.084 96.92C271.85 88.133 298.355 83.6335 323.537 81.909C328.857 81.5445 334.385 81.3152 339.705 81.1847C346.442 81.0198 352.743 81.4979 357.535 75.7222C364.26 67.6191 361.878 53.9413 351.831 49.8346C348.443 48.4498 344.632 48.8355 341.053 48.8355C335.495 48.8355 329.728 48.3972 324.21 49.1215Z" fill="white"/>
<path d="M324.21 49.1215C310.534 50.9172 296.786 51.5465 283.116 53.845C265.015 56.8875 247.167 62.0187 229.895 68.1664C174.148 88.0086 122.475 123.086 83.9936 168.087C58.6866 197.682 39.2072 231.2 24.4286 267.127C10.3356 301.386 3.30316 338.138 0.78191 374.925C-0.408086 392.286 -0.392768 410.197 1.90362 427.477C3.40141 438.746 4.42495 450.09 7.15749 461.164C9.6685 471.339 14.8607 478.655 26.4421 477.208C34.2002 476.24 39.0635 469.977 39.8007 462.511C40.1745 458.725 38.9854 455.393 38.3091 451.732C37.4022 446.821 36.8444 441.837 36.0395 436.909C35.4526 433.317 35.3605 429.709 34.8027 426.13C32.1719 409.246 32.6266 391.26 33.7922 374.252C36.7535 331.041 47.6991 287.924 68.4187 249.61C98.0474 194.821 141.896 148.857 196.884 119.112C213.292 110.237 230.633 103.373 248.084 96.92C271.85 88.133 298.355 83.6335 323.537 81.909C328.857 81.5445 334.385 81.3152 339.705 81.1847C346.442 81.0198 352.743 81.4979 357.535 75.7222C364.26 67.6191 361.878 53.9413 351.831 49.8346C348.443 48.4498 344.632 48.8355 341.053 48.8355C335.495 48.8355 329.728 48.3972 324.21 49.1215Z" fill="white" fill-opacity="0.16"/>
<path d="M331.452 119.058C309.614 121.926 286.291 122.13 265.431 130.306C253.672 134.914 253.93 150.043 261.651 158.318C269.147 166.35 283.058 159.363 291.705 157.263C315.988 151.365 341.598 149.528 366.484 151.9C437.598 158.677 500.129 201.633 534.022 264.301C550.911 295.526 561.367 333.044 559.805 368.73C558.143 406.654 546.603 443.613 526.532 475.855C518.326 489.035 508.692 501.785 497.842 512.91C493.885 516.965 489.926 521.121 485.726 524.922C482.512 527.83 478.731 530.49 475.978 533.855C468.111 543.476 476.633 559.873 488.421 560.683C495.823 561.192 500.153 556.715 505.263 552.101C513.933 544.265 521.977 535.917 529.602 527.059C565.111 485.798 586.235 435.587 591.378 381.531C599.252 298.801 557.274 212.709 490.442 164.415C462.879 144.5 431.324 131.074 398.147 124.02C386.067 121.452 374.05 120.227 361.768 119.386C351.916 118.711 341.298 117.765 331.452 119.058Z" fill="white"/>
<path d="M331.452 119.058C309.614 121.926 286.291 122.13 265.431 130.306C253.672 134.914 253.93 150.043 261.651 158.318C269.147 166.35 283.058 159.363 291.705 157.263C315.988 151.365 341.598 149.528 366.484 151.9C437.598 158.677 500.129 201.633 534.022 264.301C550.911 295.526 561.367 333.044 559.805 368.73C558.143 406.654 546.603 443.613 526.532 475.855C518.326 489.035 508.692 501.785 497.842 512.91C493.885 516.965 489.926 521.121 485.726 524.922C482.512 527.83 478.731 530.49 475.978 533.855C468.111 543.476 476.633 559.873 488.421 560.683C495.823 561.192 500.153 556.715 505.263 552.101C513.933 544.265 521.977 535.917 529.602 527.059C565.111 485.798 586.235 435.587 591.378 381.531C599.252 298.801 557.274 212.709 490.442 164.415C462.879 144.5 431.324 131.074 398.147 124.02C386.067 121.452 374.05 120.227 361.768 119.386C351.916 118.711 341.298 117.765 331.452 119.058Z" fill="white" fill-opacity="0.16"/>
<path d="M162.429 259.554C155.197 260.191 148.863 266.35 144.585 273.873C140.587 280.903 140.579 283.583 136.912 291.942C133.415 299.918 131.53 306.564 128.508 315.554C127.242 319.316 125.562 325.372 123.983 331.752C120.203 347.02 120.14 366.606 135.702 368.891C142.734 369.924 151.073 365.498 153.056 358.673C154.05 355.251 155.132 350.653 156.264 344.476C160.751 320.004 177.715 285.294 180.36 277.252C180.688 276.256 180.89 274.47 180.924 273.423C181.117 267.473 176.807 261.857 171.148 260.013C168.528 259.158 166.369 259.209 162.429 259.554Z" fill="white"/>
<path d="M162.429 259.554C155.197 260.191 148.863 266.35 144.585 273.873C140.587 280.903 140.579 283.583 136.912 291.942C133.415 299.918 131.53 306.564 128.508 315.554C127.242 319.316 125.562 325.372 123.983 331.752C120.203 347.02 120.14 366.606 135.702 368.891C142.734 369.924 151.073 365.498 153.056 358.673C154.05 355.251 155.132 350.653 156.264 344.476C160.751 320.004 177.715 285.294 180.36 277.252C180.688 276.256 180.89 274.47 180.924 273.423C181.117 267.473 176.807 261.857 171.148 260.013C168.528 259.158 166.369 259.209 162.429 259.554Z" fill="white" fill-opacity="0.16"/>
<path d="M336.166 276.04C321.223 278.075 307.656 282.254 295.071 290.81C285.658 297.208 277.608 305.382 271.271 314.831C248.356 348.993 252.784 397.234 281.624 426.661C301.335 446.774 330.036 455.815 357.724 452.085C370.1 450.417 382.165 446.037 392.756 439.43C401.093 434.225 408.358 427.518 414.571 419.934C447.618 379.613 436.344 316.807 392.756 289.198C384.379 283.892 374.879 279.768 365.135 277.779C355.843 275.88 345.62 274.753 336.166 276.04Z" fill="white"/>
<path d="M336.166 276.04C321.223 278.075 307.656 282.254 295.071 290.81C285.658 297.208 277.608 305.382 271.271 314.831C248.356 348.993 252.784 397.234 281.624 426.661C301.335 446.774 330.036 455.815 357.724 452.085C370.1 450.417 382.165 446.037 392.756 439.43C401.093 434.225 408.358 427.518 414.571 419.934C447.618 379.613 436.344 316.807 392.756 289.198C384.379 283.892 374.879 279.768 365.135 277.779C355.843 275.88 345.62 274.753 336.166 276.04Z" fill="white" fill-opacity="0.16"/>
<path d="M670.312 348.16C657.706 350.482 659.257 363.693 658.832 373.446C658.589 379.016 657.929 384.739 657.396 390.289C653.26 433.569 640.008 475.911 619.704 514.257C582.321 584.862 512.213 641.973 435.196 663.626C414.056 669.568 392.433 674.428 370.522 676.515C362.45 677.284 354.34 677.767 346.27 678.536C342.99 678.848 339.243 678.006 336.164 679.419C324.283 684.865 327.672 706.543 340.206 708.746C350.164 710.498 361.856 709.043 371.869 708.355C393.519 706.873 414.896 703.632 435.869 697.798C493.63 681.744 547.831 651.335 590.141 608.581C619.619 578.794 643.216 543.528 660.671 505.499C677.466 468.91 688.85 426.645 689.842 386.247C690.003 379.518 689.848 372.766 689.848 366.035C689.848 361.803 690.049 357.528 687.389 353.938C684.917 350.6 680.948 349.315 677.048 348.521C674.792 348.061 672.609 347.738 670.312 348.16Z" fill="white"/>
<path d="M670.312 348.16C657.706 350.482 659.257 363.693 658.832 373.446C658.589 379.016 657.929 384.739 657.396 390.289C653.26 433.569 640.008 475.911 619.704 514.257C582.321 584.862 512.213 641.973 435.196 663.626C414.056 669.568 392.433 674.428 370.522 676.515C362.45 677.284 354.34 677.767 346.27 678.536C342.99 678.848 339.243 678.006 336.164 679.419C324.283 684.865 327.672 706.543 340.206 708.746C350.164 710.498 361.856 709.043 371.869 708.355C393.519 706.873 414.896 703.632 435.869 697.798C493.63 681.744 547.831 651.335 590.141 608.581C619.619 578.794 643.216 543.528 660.671 505.499C677.466 468.91 688.85 426.645 689.842 386.247C690.003 379.518 689.848 372.766 689.848 366.035C689.848 361.803 690.049 357.528 687.389 353.938C684.917 350.6 680.948 349.315 677.048 348.521C674.792 348.061 672.609 347.738 670.312 348.16Z" fill="white" fill-opacity="0.16"/>
<path d="M149.557 477.579C140.356 479.994 135.883 491.131 139.73 499.437C141.844 504.001 145.3 508.161 148.209 512.238C156.216 523.462 165.402 533.519 175.157 543.23C209.32 577.231 257.651 600.483 305.178 607.519C316.215 609.153 327.039 609.93 338.189 609.93C342.968 609.93 348.566 610.744 353.01 608.635C363.332 603.743 364.205 585.564 353.657 580.318C347.657 577.335 338.069 578.688 331.452 578.203C319.88 577.355 308.409 575.101 297.094 572.588C263.11 565.039 232.031 547.83 205.473 525.658C193.688 515.82 183.042 504.1 173.582 492.026C167.092 483.742 161.749 474.381 149.557 477.579Z" fill="white"/>
<path d="M149.557 477.579C140.356 479.994 135.883 491.131 139.73 499.437C141.844 504.001 145.3 508.161 148.209 512.238C156.216 523.462 165.402 533.519 175.157 543.23C209.32 577.231 257.651 600.483 305.178 607.519C316.215 609.153 327.039 609.93 338.189 609.93C342.968 609.93 348.566 610.744 353.01 608.635C363.332 603.743 364.205 585.564 353.657 580.318C347.657 577.335 338.069 578.688 331.452 578.203C319.88 577.355 308.409 575.101 297.094 572.588C263.11 565.039 232.031 547.83 205.473 525.658C193.688 515.82 183.042 504.1 173.582 492.026C167.092 483.742 161.749 474.381 149.557 477.579Z" fill="white" fill-opacity="0.16"/>
<path d="M78.1444 546.327C69.2788 548.486 64.4712 557.452 67.1282 566.136C68.2715 569.872 71.2209 573.084 73.4118 576.242C78.843 584.071 85.1426 591.249 91.3344 598.475C119.444 631.285 157.013 656.319 195.365 675.448C204.212 679.859 213.597 683.644 222.986 686.735C227.872 688.344 233.497 689.793 238.481 687.758C248.761 683.555 250.938 668.392 242.513 661.362C238.489 658.004 233.101 656.875 228.375 654.878C219.043 650.931 209.675 646.757 200.755 641.947C170.217 625.488 140.432 605.332 117.504 578.937C111.653 572.201 105.651 565.634 99.9878 558.724C94.2481 551.721 88.4747 543.811 78.1444 546.327Z" fill="white"/>
<path d="M78.1444 546.327C69.2788 548.486 64.4712 557.452 67.1282 566.136C68.2715 569.872 71.2209 573.084 73.4118 576.242C78.843 584.071 85.1426 591.249 91.3344 598.475C119.444 631.285 157.013 656.319 195.365 675.448C204.212 679.859 213.597 683.644 222.986 686.735C227.872 688.344 233.497 689.793 238.481 687.758C248.761 683.555 250.938 668.392 242.513 661.362C238.489 658.004 233.101 656.875 228.375 654.878C219.043 650.931 209.675 646.757 200.755 641.947C170.217 625.488 140.432 605.332 117.504 578.937C111.653 572.201 105.651 565.634 99.9878 558.724C94.2481 551.721 88.4747 543.811 78.1444 546.327Z" fill="white" fill-opacity="0.16"/>
<path d="M536.927 80.7193C524.699 81.6487 517.414 96.4257 524.563 106.646C528.631 112.464 535.622 116.419 540.969 120.978C551.236 129.735 561.173 138.755 570.601 148.418C594.49 172.91 613.226 202.108 628.379 232.635C631.76 239.439 634.704 246.489 637.574 253.52C640.707 261.224 643.18 270.857 652.8 272.245C654.752 272.525 656.909 272.483 658.864 272.269C667.116 271.368 673.461 263.819 672.7 255.542C672.262 250.838 670.45 246.513 668.969 242.067C665.822 232.637 661.794 223.334 657.348 214.444C637.097 173.941 610.279 137.08 576.674 106.596C568.994 99.6306 560.863 93.127 552.421 87.1078C547.72 83.7553 543.024 80.2558 536.927 80.7193Z" fill="white"/>
<path d="M536.927 80.7193C524.699 81.6487 517.414 96.4257 524.563 106.646C528.631 112.464 535.622 116.419 540.969 120.978C551.236 129.735 561.173 138.755 570.601 148.418C594.49 172.91 613.226 202.108 628.379 232.635C631.76 239.439 634.704 246.489 637.574 253.52C640.707 261.224 643.18 270.857 652.8 272.245C654.752 272.525 656.909 272.483 658.864 272.269C667.116 271.368 673.461 263.819 672.7 255.542C672.262 250.838 670.45 246.513 668.969 242.067C665.822 232.637 661.794 223.334 657.348 214.444C637.097 173.941 610.279 137.08 576.674 106.596C568.994 99.6306 560.863 93.127 552.421 87.1078C547.72 83.7553 543.024 80.2558 536.927 80.7193Z" fill="white" fill-opacity="0.16"/>
<path d="M324.21 49.1215C310.534 50.9172 296.786 51.5465 283.116 53.845C265.015 56.8875 247.167 62.0187 229.895 68.1664C174.148 88.0086 122.475 123.086 83.9936 168.087C58.6866 197.682 39.2072 231.2 24.4286 267.127C10.3356 301.386 3.30316 338.138 0.78191 374.925C-0.408086 392.286 -0.392768 410.197 1.90362 427.477C3.40141 438.746 4.42495 450.09 7.15749 461.164C9.6685 471.339 14.8607 478.655 26.4421 477.208C34.2002 476.24 39.0635 469.977 39.8007 462.511C40.1745 458.725 38.9854 455.393 38.3091 451.732C37.4022 446.821 36.8444 441.837 36.0395 436.909C35.4526 433.317 35.3605 429.709 34.8027 426.13C32.1719 409.246 32.6266 391.26 33.7922 374.252C36.7535 331.041 47.6991 287.924 68.4187 249.61C98.0474 194.821 141.896 148.857 196.884 119.112C213.292 110.237 230.633 103.373 248.084 96.92C271.85 88.133 298.355 83.6335 323.537 81.909C328.857 81.5445 334.385 81.3152 339.705 81.1847C346.442 81.0198 352.743 81.4979 357.535 75.7222C364.26 67.6191 361.878 53.9413 351.831 49.8346C348.443 48.4498 344.632 48.8355 341.053 48.8355C335.495 48.8355 329.728 48.3972 324.21 49.1215Z" fill="white"/>
<path d="M324.21 49.1215C310.534 50.9172 296.786 51.5465 283.116 53.845C265.015 56.8875 247.167 62.0187 229.895 68.1664C174.148 88.0086 122.475 123.086 83.9936 168.087C58.6866 197.682 39.2072 231.2 24.4286 267.127C10.3356 301.386 3.30316 338.138 0.78191 374.925C-0.408086 392.286 -0.392768 410.197 1.90362 427.477C3.40141 438.746 4.42495 450.09 7.15749 461.164C9.6685 471.339 14.8607 478.655 26.4421 477.208C34.2002 476.24 39.0635 469.977 39.8007 462.511C40.1745 458.725 38.9854 455.393 38.3091 451.732C37.4022 446.821 36.8444 441.837 36.0395 436.909C35.4526 433.317 35.3605 429.709 34.8027 426.13C32.1719 409.246 32.6266 391.26 33.7922 374.252C36.7535 331.041 47.6991 287.924 68.4187 249.61C98.0474 194.821 141.896 148.857 196.884 119.112C213.292 110.237 230.633 103.373 248.084 96.92C271.85 88.133 298.355 83.6335 323.537 81.909C328.857 81.5445 334.385 81.3152 339.705 81.1847C346.442 81.0198 352.743 81.4979 357.535 75.7222C364.26 67.6191 361.878 53.9413 351.831 49.8346C348.443 48.4498 344.632 48.8355 341.053 48.8355C335.495 48.8355 329.728 48.3972 324.21 49.1215Z" fill="white" fill-opacity="0.16"/>
<path d="M331.452 119.058C309.614 121.926 286.291 122.13 265.431 130.306C253.672 134.914 253.93 150.043 261.651 158.318C269.147 166.35 283.058 159.363 291.705 157.263C315.988 151.365 341.598 149.528 366.484 151.9C437.598 158.677 500.129 201.633 534.022 264.301C550.911 295.526 561.367 333.044 559.805 368.73C558.143 406.654 546.603 443.613 526.532 475.855C518.326 489.035 508.692 501.785 497.842 512.91C493.885 516.965 489.926 521.121 485.726 524.922C482.512 527.83 478.731 530.49 475.978 533.855C468.111 543.476 476.633 559.873 488.421 560.683C495.823 561.192 500.153 556.715 505.263 552.101C513.933 544.265 521.977 535.917 529.602 527.059C565.111 485.798 586.235 435.587 591.378 381.531C599.252 298.801 557.274 212.709 490.442 164.415C462.879 144.5 431.324 131.074 398.147 124.02C386.067 121.452 374.05 120.227 361.768 119.386C351.916 118.711 341.298 117.765 331.452 119.058Z" fill="white"/>
<path d="M331.452 119.058C309.614 121.926 286.291 122.13 265.431 130.306C253.672 134.914 253.93 150.043 261.651 158.318C269.147 166.35 283.058 159.363 291.705 157.263C315.988 151.365 341.598 149.528 366.484 151.9C437.598 158.677 500.129 201.633 534.022 264.301C550.911 295.526 561.367 333.044 559.805 368.73C558.143 406.654 546.603 443.613 526.532 475.855C518.326 489.035 508.692 501.785 497.842 512.91C493.885 516.965 489.926 521.121 485.726 524.922C482.512 527.83 478.731 530.49 475.978 533.855C468.111 543.476 476.633 559.873 488.421 560.683C495.823 561.192 500.153 556.715 505.263 552.101C513.933 544.265 521.977 535.917 529.602 527.059C565.111 485.798 586.235 435.587 591.378 381.531C599.252 298.801 557.274 212.709 490.442 164.415C462.879 144.5 431.324 131.074 398.147 124.02C386.067 121.452 374.05 120.227 361.768 119.386C351.916 118.711 341.298 117.765 331.452 119.058Z" fill="white" fill-opacity="0.16"/>
<path d="M162.429 259.554C155.197 260.191 148.863 266.35 144.585 273.873C140.587 280.903 140.579 283.583 136.912 291.942C133.415 299.918 131.53 306.564 128.508 315.554C127.242 319.316 125.562 325.372 123.983 331.752C120.203 347.02 120.14 366.606 135.702 368.891C142.734 369.924 151.073 365.498 153.056 358.673C154.05 355.251 155.132 350.653 156.264 344.476C160.751 320.004 177.715 285.294 180.36 277.252C180.688 276.256 180.89 274.47 180.924 273.423C181.117 267.473 176.807 261.857 171.148 260.013C168.528 259.158 166.369 259.209 162.429 259.554Z" fill="white"/>
<path d="M162.429 259.554C155.197 260.191 148.863 266.35 144.585 273.873C140.587 280.903 140.579 283.583 136.912 291.942C133.415 299.918 131.53 306.564 128.508 315.554C127.242 319.316 125.562 325.372 123.983 331.752C120.203 347.02 120.14 366.606 135.702 368.891C142.734 369.924 151.073 365.498 153.056 358.673C154.05 355.251 155.132 350.653 156.264 344.476C160.751 320.004 177.715 285.294 180.36 277.252C180.688 276.256 180.89 274.47 180.924 273.423C181.117 267.473 176.807 261.857 171.148 260.013C168.528 259.158 166.369 259.209 162.429 259.554Z" fill="white" fill-opacity="0.16"/>
<path d="M336.166 276.04C321.223 278.075 307.656 282.254 295.071 290.81C285.658 297.208 277.608 305.382 271.271 314.831C248.356 348.993 252.784 397.234 281.624 426.661C301.335 446.774 330.036 455.815 357.724 452.085C370.1 450.417 382.165 446.037 392.756 439.43C401.093 434.225 408.358 427.518 414.571 419.934C447.618 379.613 436.344 316.807 392.756 289.198C384.379 283.892 374.879 279.768 365.135 277.779C355.843 275.88 345.62 274.753 336.166 276.04Z" fill="white"/>
<path d="M336.166 276.04C321.223 278.075 307.656 282.254 295.071 290.81C285.658 297.208 277.608 305.382 271.271 314.831C248.356 348.993 252.784 397.234 281.624 426.661C301.335 446.774 330.036 455.815 357.724 452.085C370.1 450.417 382.165 446.037 392.756 439.43C401.093 434.225 408.358 427.518 414.571 419.934C447.618 379.613 436.344 316.807 392.756 289.198C384.379 283.892 374.879 279.768 365.135 277.779C355.843 275.88 345.62 274.753 336.166 276.04Z" fill="white" fill-opacity="0.16"/>
<path d="M336.166 276.04C321.223 278.075 307.656 282.254 295.071 290.81C285.658 297.208 277.608 305.382 271.271 314.831C248.356 348.993 252.784 397.234 281.624 426.661C301.335 446.774 330.036 455.815 357.724 452.085C370.1 450.417 382.165 446.037 392.756 439.43C401.093 434.225 408.358 427.518 414.571 419.934C447.618 379.613 436.344 316.807 392.756 289.198C384.379 283.892 374.879 279.768 365.135 277.779C355.843 275.88 345.62 274.753 336.166 276.04Z" fill="white"/>
<path d="M336.166 276.04C321.223 278.075 307.656 282.254 295.071 290.81C285.658 297.208 277.608 305.382 271.271 314.831C248.356 348.993 252.784 397.234 281.624 426.661C301.335 446.774 330.036 455.815 357.724 452.085C370.1 450.417 382.165 446.037 392.756 439.43C401.093 434.225 408.358 427.518 414.571 419.934C447.618 379.613 436.344 316.807 392.756 289.198C384.379 283.892 374.879 279.768 365.135 277.779C355.843 275.88 345.62 274.753 336.166 276.04Z" fill="white" fill-opacity="0.16"/>
<path d="M336.166 276.04C321.223 278.075 307.656 282.254 295.071 290.81C285.658 297.208 277.608 305.382 271.271 314.831C248.356 348.993 252.784 397.234 281.624 426.661C301.335 446.774 330.036 455.815 357.724 452.085C370.1 450.417 382.165 446.037 392.756 439.43C401.093 434.225 408.358 427.518 414.571 419.934C447.618 379.613 436.344 316.807 392.756 289.198C384.379 283.892 374.879 279.768 365.135 277.779C355.843 275.88 345.62 274.753 336.166 276.04Z" fill="white"/>
<path d="M336.166 276.04C321.223 278.075 307.656 282.254 295.071 290.81C285.658 297.208 277.608 305.382 271.271 314.831C248.356 348.993 252.784 397.234 281.624 426.661C301.335 446.774 330.036 455.815 357.724 452.085C370.1 450.417 382.165 446.037 392.756 439.43C401.093 434.225 408.358 427.518 414.571 419.934C447.618 379.613 436.344 316.807 392.756 289.198C384.379 283.892 374.879 279.768 365.135 277.779C355.843 275.88 345.62 274.753 336.166 276.04Z" fill="white" fill-opacity="0.16"/>
<path d="M670.312 348.16C657.706 350.482 659.257 363.693 658.832 373.446C658.589 379.016 657.929 384.739 657.396 390.289C653.26 433.569 640.008 475.911 619.704 514.257C582.321 584.862 512.213 641.973 435.196 663.626C414.056 669.568 392.433 674.428 370.522 676.515C362.45 677.284 354.34 677.767 346.27 678.536C342.99 678.848 339.243 678.006 336.164 679.419C324.283 684.865 327.672 706.543 340.206 708.746C350.164 710.498 361.856 709.043 371.869 708.355C393.519 706.873 414.896 703.632 435.869 697.798C493.63 681.744 547.831 651.335 590.141 608.581C619.619 578.794 643.216 543.528 660.671 505.499C677.466 468.91 688.85 426.645 689.842 386.247C690.003 379.518 689.848 372.766 689.848 366.035C689.848 361.803 690.049 357.528 687.389 353.938C684.917 350.6 680.948 349.315 677.048 348.521C674.792 348.061 672.609 347.738 670.312 348.16Z" fill="white"/>
<path d="M670.312 348.16C657.706 350.482 659.257 363.693 658.832 373.446C658.589 379.016 657.929 384.739 657.396 390.289C653.26 433.569 640.008 475.911 619.704 514.257C582.321 584.862 512.213 641.973 435.196 663.626C414.056 669.568 392.433 674.428 370.522 676.515C362.45 677.284 354.34 677.767 346.27 678.536C342.99 678.848 339.243 678.006 336.164 679.419C324.283 684.865 327.672 706.543 340.206 708.746C350.164 710.498 361.856 709.043 371.869 708.355C393.519 706.873 414.896 703.632 435.869 697.798C493.63 681.744 547.831 651.335 590.141 608.581C619.619 578.794 643.216 543.528 660.671 505.499C677.466 468.91 688.85 426.645 689.842 386.247C690.003 379.518 689.848 372.766 689.848 366.035C689.848 361.803 690.049 357.528 687.389 353.938C684.917 350.6 680.948 349.315 677.048 348.521C674.792 348.061 672.609 347.738 670.312 348.16Z" fill="white" fill-opacity="0.16"/>
<path d="M149.557 477.579C140.356 479.994 135.883 491.131 139.73 499.437C141.844 504.001 145.3 508.161 148.209 512.238C156.216 523.462 165.402 533.519 175.157 543.23C209.32 577.231 257.651 600.483 305.178 607.519C316.215 609.153 327.039 609.93 338.189 609.93C342.968 609.93 348.566 610.744 353.01 608.635C363.332 603.743 364.205 585.564 353.657 580.318C347.657 577.335 338.069 578.688 331.452 578.203C319.88 577.355 308.409 575.101 297.094 572.588C263.11 565.039 232.031 547.83 205.473 525.658C193.688 515.82 183.042 504.1 173.582 492.026C167.092 483.742 161.749 474.381 149.557 477.579Z" fill="white"/>
<path d="M149.557 477.579C140.356 479.994 135.883 491.131 139.73 499.437C141.844 504.001 145.3 508.161 148.209 512.238C156.216 523.462 165.402 533.519 175.157 543.23C209.32 577.231 257.651 600.483 305.178 607.519C316.215 609.153 327.039 609.93 338.189 609.93C342.968 609.93 348.566 610.744 353.01 608.635C363.332 603.743 364.205 585.564 353.657 580.318C347.657 577.335 338.069 578.688 331.452 578.203C319.88 577.355 308.409 575.101 297.094 572.588C263.11 565.039 232.031 547.83 205.473 525.658C193.688 515.82 183.042 504.1 173.582 492.026C167.092 483.742 161.749 474.381 149.557 477.579Z" fill="white" fill-opacity="0.16"/>
<path d="M78.1444 546.327C69.2788 548.486 64.4712 557.452 67.1282 566.136C68.2715 569.872 71.2209 573.084 73.4118 576.242C78.843 584.071 85.1426 591.249 91.3344 598.475C119.444 631.285 157.013 656.319 195.365 675.448C204.212 679.859 213.597 683.644 222.986 686.735C227.872 688.344 233.497 689.793 238.481 687.758C248.761 683.555 250.938 668.392 242.513 661.362C238.489 658.004 233.101 656.875 228.375 654.878C219.043 650.931 209.675 646.757 200.755 641.947C170.217 625.488 140.432 605.332 117.504 578.937C111.653 572.201 105.651 565.634 99.9878 558.724C94.2481 551.721 88.4747 543.811 78.1444 546.327Z" fill="white"/>
<path d="M78.1444 546.327C69.2788 548.486 64.4712 557.452 67.1282 566.136C68.2715 569.872 71.2209 573.084 73.4118 576.242C78.843 584.071 85.1426 591.249 91.3344 598.475C119.444 631.285 157.013 656.319 195.365 675.448C204.212 679.859 213.597 683.644 222.986 686.735C227.872 688.344 233.497 689.793 238.481 687.758C248.761 683.555 250.938 668.392 242.513 661.362C238.489 658.004 233.101 656.875 228.375 654.878C219.043 650.931 209.675 646.757 200.755 641.947C170.217 625.488 140.432 605.332 117.504 578.937C111.653 572.201 105.651 565.634 99.9878 558.724C94.2481 551.721 88.4747 543.811 78.1444 546.327Z" fill="white" fill-opacity="0.16"/>
</svg>
